<svg width="1400" height="430" viewBox="0 0 1400 430" fill="none" xmlns="http://www.w3.org/2000/svg">
  <defs>
    <linearGradient id="bg" x1="0" y1="0" x2="1400" y2="430" gradientUnits="userSpaceOnUse">
      <stop offset="0" stop-color="#06020B"/>
      <stop offset="0.35" stop-color="#120417"/>
      <stop offset="0.7" stop-color="#1A0622"/>
      <stop offset="1" stop-color="#09020E"/>
    </linearGradient>

    <radialGradient id="nebulaLeft" cx="0" cy="0" r="1" gradientUnits="userSpaceOnUse" gradientTransform="translate(220 105) rotate(19) scale(290 200)">
      <stop offset="0" stop-color="#FF4A86"/>
      <stop offset="0.48" stop-color="#B236FF" stop-opacity="0.75"/>
      <stop offset="1" stop-color="#B236FF" stop-opacity="0"/>
    </radialGradient>

    <radialGradient id="nebulaRight" cx="0" cy="0" r="1" gradientUnits="userSpaceOnUse" gradientTransform="translate(1170 325) rotate(-12) scale(370 240)">
      <stop offset="0" stop-color="#FF285F"/>
      <stop offset="0.42" stop-color="#8E39FF" stop-opacity="0.72"/>
      <stop offset="1" stop-color="#8E39FF" stop-opacity="0"/>
    </radialGradient>

    <radialGradient id="nebulaMiddle" cx="0" cy="0" r="1" gradientUnits="userSpaceOnUse" gradientTransform="translate(760 220) rotate(8) scale(320 180)">
      <stop offset="0" stop-color="#FF7FB1" stop-opacity="0.22"/>
      <stop offset="0.48" stop-color="#C54BFF" stop-opacity="0.15"/>
      <stop offset="1" stop-color="#C54BFF" stop-opacity="0"/>
    </radialGradient>

    <linearGradient id="glassStroke" x1="170" y1="70" x2="1230" y2="360" gradientUnits="userSpaceOnUse">
      <stop offset="0" stop-color="#FFFFFF" stop-opacity="0.32"/>
      <stop offset="0.3" stop-color="#FF5E95" stop-opacity="0.24"/>
      <stop offset="0.7" stop-color="#AA46FF" stop-opacity="0.26"/>
      <stop offset="1" stop-color="#FFFFFF" stop-opacity="0.18"/>
    </linearGradient>

    <linearGradient id="glassFill" x1="190" y1="82" x2="1210" y2="350" gradientUnits="userSpaceOnUse">
      <stop offset="0" stop-color="#FFFFFF" stop-opacity="0.13"/>
      <stop offset="0.45" stop-color="#FFFFFF" stop-opacity="0.06"/>
      <stop offset="1" stop-color="#FFFFFF" stop-opacity="0.08"/>
    </linearGradient>

    <linearGradient id="shine" x1="132" y1="63" x2="540" y2="242" gradientUnits="userSpaceOnUse">
      <stop offset="0" stop-color="#FFFFFF" stop-opacity="0.42"/>
      <stop offset="0.4" stop-color="#FFFFFF" stop-opacity="0.12"/>
      <stop offset="1" stop-color="#FFFFFF" stop-opacity="0"/>
    </linearGradient>

    <linearGradient id="textFill" x1="390" y1="120" x2="980" y2="230" gradientUnits="userSpaceOnUse">
      <stop offset="0" stop-color="#FFFFFF"/>
      <stop offset="0.55" stop-color="#FFD0E3"/>
      <stop offset="1" stop-color="#D8C4FF"/>
    </linearGradient>

    <linearGradient id="pillPink" x1="0" y1="0" x2="1" y2="1">
      <stop offset="0" stop-color="#FF2C6D"/>
      <stop offset="1" stop-color="#FF6CA8"/>
    </linearGradient>

    <linearGradient id="pillPurple" x1="0" y1="0" x2="1" y2="1">
      <stop offset="0" stop-color="#7A2DFF"/>
      <stop offset="1" stop-color="#C04DFF"/>
    </linearGradient>

    <linearGradient id="pillMix" x1="0" y1="0" x2="1" y2="1">
      <stop offset="0" stop-color="#FF2C6D"/>
      <stop offset="1" stop-color="#9B3CFF"/>
    </linearGradient>

    <filter id="softGlow" x="-30%" y="-30%" width="160%" height="160%">
      <feGaussianBlur stdDeviation="9" result="blur"/>
      <feMerge>
        <feMergeNode in="blur"/>
        <feMergeNode in="SourceGraphic"/>
      </feMerge>
    </filter>

    <filter id="glassShadow" x="-20%" y="-20%" width="140%" height="140%">
      <feDropShadow dx="0" dy="18" stdDeviation="24" flood-color="#000000" flood-opacity="0.35"/>
    </filter>

    <filter id="innerBlur">
      <feGaussianBlur stdDeviation="20"/>
    </filter>

    <pattern id="tinyGrid" width="44" height="44" patternUnits="userSpaceOnUse">
      <path d="M44 0H0V44" stroke="#FFFFFF" stroke-opacity="0.045"/>
    </pattern>

    <symbol id="spark" viewBox="0 0 20 20">
      <path d="M10 0L11.5 8.5L20 10L11.5 11.5L10 20L8.5 11.5L0 10L8.5 8.5L10 0Z" fill="white"/>
    </symbol>
  </defs>

  <rect width="1400" height="430" rx="34" fill="url(#bg)"/>
  <rect width="1400" height="430" rx="34" fill="url(#tinyGrid)"/>

  <ellipse cx="220" cy="105" rx="290" ry="200" fill="url(#nebulaLeft)" filter="url(#softGlow)">
    <animate attributeName="cx" values="220;250;220" dur="10s" repeatCount="indefinite"/>
    <animate attributeName="cy" values="105;120;105" dur="10s" repeatCount="indefinite"/>
  </ellipse>

  <ellipse cx="1170" cy="325" rx="370" ry="240" fill="url(#nebulaRight)" filter="url(#softGlow)">
    <animate attributeName="cx" values="1170;1145;1170" dur="12s" repeatCount="indefinite"/>
    <animate attributeName="cy" values="325;305;325" dur="12s" repeatCount="indefinite"/>
  </ellipse>

  <ellipse cx="760" cy="220" rx="320" ry="180" fill="url(#nebulaMiddle)" filter="url(#innerBlur)"/>

  <g opacity="0.95">
    <circle cx="72" cy="62" r="1.4" fill="#fff"/>
    <circle cx="118" cy="95" r="1.9" fill="#FFD6E7"/>
    <circle cx="153" cy="56" r="1.5" fill="#fff"/>
    <circle cx="210" cy="40" r="1.8" fill="#fff"/>
    <circle cx="264" cy="78" r="1.4" fill="#FBD5FF"/>
    <circle cx="323" cy="48" r="1.3" fill="#fff"/>
    <circle cx="410" cy="66" r="1.6" fill="#fff"/>
    <circle cx="486" cy="42" r="1.3" fill="#fff"/>
    <circle cx="560" cy="84" r="1.7" fill="#FFE2EE"/>
    <circle cx="632" cy="56" r="1.3" fill="#fff"/>
    <circle cx="724" cy="37" r="1.5" fill="#fff"/>
    <circle cx="809" cy="71" r="1.4" fill="#FFE1F0"/>
    <circle cx="912" cy="48" r="1.6" fill="#fff"/>
    <circle cx="1002" cy="68" r="1.4" fill="#fff"/>
    <circle cx="1080" cy="44" r="1.3" fill="#fff"/>
    <circle cx="1188" cy="72" r="1.8" fill="#FFD7F4"/>
    <circle cx="1268" cy="53" r="1.3" fill="#fff"/>
    <circle cx="1326" cy="91" r="1.7" fill="#fff"/>

    <circle cx="96" cy="336" r="1.7" fill="#fff"/>
    <circle cx="162" cy="366" r="1.3" fill="#fff"/>
    <circle cx="250" cy="392" r="1.4" fill="#FFE7F2"/>
    <circle cx="340" cy="344" r="1.6" fill="#fff"/>
    <circle cx="426" cy="386" r="1.4" fill="#fff"/>
    <circle cx="518" cy="360" r="1.3" fill="#FFD4F6"/>
    <circle cx="615" cy="392" r="1.5" fill="#fff"/>
    <circle cx="720" cy="369" r="1.4" fill="#fff"/>
    <circle cx="816" cy="398" r="1.7" fill="#fff"/>
    <circle cx="915" cy="363" r="1.3" fill="#FFE3EF"/>
    <circle cx="1014" cy="392" r="1.5" fill="#fff"/>
    <circle cx="1098" cy="347" r="1.3" fill="#fff"/>
    <circle cx="1204" cy="385" r="1.4" fill="#fff"/>
    <circle cx="1286" cy="353" r="1.7" fill="#FFD6E6"/>
  </g>

  <use href="#spark" x="112" y="118" width="10" height="10" opacity="0.9">
    <animate attributeName="opacity" values="0.2;1;0.2" dur="2s" repeatCount="indefinite"/>
  </use>
  <use href="#spark" x="1228" y="88" width="12" height="12" opacity="0.7">
    <animate attributeName="opacity" values="1;0.25;1" dur="2.6s" repeatCount="indefinite"/>
  </use>
  <use href="#spark" x="1186" y="324" width="10" height="10" opacity="0.8">
    <animate attributeName="opacity" values="0.35;1;0.35" dur="1.8s" repeatCount="indefinite"/>
  </use>
  <use href="#spark" x="214" y="330" width="8" height="8" opacity="0.8">
    <animate attributeName="opacity" values="1;0.3;1" dur="2.3s" repeatCount="indefinite"/>
  </use>

  <path d="M84 314C214 212 344 390 540 256C715 137 952 141 1318 84" stroke="url(#pillMix)" stroke-width="5" stroke-linecap="round" opacity="0.72" filter="url(#softGlow)">
    <animate attributeName="stroke-dasharray" values="18 26;58 16;18 26" dur="5s" repeatCount="indefinite"/>
  </path>

  <path d="M82 336C262 257 404 358 609 254C813 151 987 211 1312 122" stroke="#FFD1E4" stroke-opacity="0.28" stroke-width="2" stroke-linecap="round">
    <animate attributeName="stroke-dashoffset" values="0;180" dur="8s" repeatCount="indefinite"/>
  </path>

  <g filter="url(#glassShadow)">
    <rect x="94" y="58" width="1212" height="314" rx="34" fill="url(#glassFill)" stroke="url(#glassStroke)" stroke-width="1.8"/>
    <rect x="112" y="74" width="1176" height="70" rx="26" fill="url(#shine)" opacity="0.38"/>
    <rect x="112" y="154" width="1176" height="200" rx="28" fill="#FFFFFF" fill-opacity="0.035"/>
  </g>

  <g opacity="0.36">
    <ellipse cx="1184" cy="126" rx="106" ry="106" fill="#FFFFFF" fill-opacity="0.08"/>
    <ellipse cx="1184" cy="126" rx="76" ry="76" stroke="#FFFFFF" stroke-opacity="0.12"/>
    <ellipse cx="1184" cy="126" rx="48" ry="48" stroke="#FF6CA8" stroke-opacity="0.18"/>
  </g>

  <g opacity="0.28">
    <rect x="170" y="108" width="90" height="90" rx="28" fill="#FFFFFF" fill-opacity="0.08"/>
    <rect x="176" y="114" width="78" height="78" rx="24" stroke="#FFFFFF" stroke-opacity="0.12"/>
  </g>

  <text x="700" y="176" text-anchor="middle" font-family="Arial Black, Segoe UI, sans-serif" font-size="88" letter-spacing="2.5" fill="url(#textFill)" filter="url(#softGlow)">itsjose4</text>
  <text x="700" y="224" text-anchor="middle" font-family="Verdana, Arial, sans-serif" font-size="22" letter-spacing="7" fill="#FF69A2">VERBAL HUB OFFICIAL</text>

  <g filter="url(#softGlow)">
    <g>
      <rect x="304" y="262" width="154" height="48" rx="24" fill="#FFFFFF" fill-opacity="0.08" stroke="url(#pillPink)" stroke-width="1.5"/>
      <circle cx="330" cy="286" r="6" fill="url(#pillPink)"/>
      <text x="381" y="292" text-anchor="middle" font-family="Verdana, Arial, sans-serif" font-size="17" font-weight="700" fill="#FFFFFF">LUA</text>
    </g>

    <g>
      <rect x="478" y="262" width="166" height="48" rx="24" fill="#FFFFFF" fill-opacity="0.08" stroke="url(#pillPurple)" stroke-width="1.5"/>
      <circle cx="504" cy="286" r="6" fill="url(#pillPurple)"/>
      <text x="561" y="292" text-anchor="middle" font-family="Verdana, Arial, sans-serif" font-size="17" font-weight="700" fill="#FFFFFF">FTAP</text>
    </g>

    <g>
      <rect x="664" y="262" width="230" height="48" rx="24" fill="#FFFFFF" fill-opacity="0.08" stroke="url(#pillMix)" stroke-width="1.5"/>
      <circle cx="690" cy="286" r="6" fill="url(#pillMix)"/>
      <text x="779" y="292" text-anchor="middle" font-family="Verdana, Arial, sans-serif" font-size="17" font-weight="700" fill="#FFFFFF">VERBAL HUB UI</text>
    </g>

    <g>
      <rect x="914" y="262" width="180" height="48" rx="24" fill="#FFFFFF" fill-opacity="0.08" stroke="url(#pillPink)" stroke-width="1.5"/>
      <circle cx="940" cy="286" r="6" fill="url(#pillPink)"/>
      <text x="1004" y="292" text-anchor="middle" font-family="Verdana, Arial, sans-serif" font-size="17" font-weight="700" fill="#FFFFFF">XLQP</text>
    </g>
  </g>

  <text x="700" y="338" text-anchor="middle" font-family="Verdana, Arial, sans-serif" font-size="20" fill="#E5D8FF">XLQP IS COMING OUT SOON</text>
</svg>
